<?xml version="1.0" encoding="utf-8"?>
<!-- Generator: Adobe Illustrator 18.1.0, SVG Export Plug-In . SVG Version: 6.00 Build 0)  -->
<svg version="1.1" id="Layer_1" xmlns="http://www.w3.org/2000/svg" xmlns:xlink="http://www.w3.org/1999/xlink" x="0px" y="0px"
	 viewBox="0 0 800 800" enable-background="new 0 0 800 800" xml:space="preserve">
<path id="Blue_1_" fill="#3D5A98" d="M755.8,800c24.4,0,44.2-19.8,44.2-44.2V44.2C800,19.8,780.2,0,755.8,0H44.2
	C19.8,0,0,19.8,0,44.2v711.7C0,780.2,19.8,800,44.2,800H755.8z"/>
<path id="f" fill="#FFFFFF" d="M542.5,775V484.6H640l14.6-113.2H542.5v-72.3c0-32.8,9.1-55.1,56.1-55.1l59.9,0V142.7
	c-10.4-1.4-45.9-4.5-87.3-4.5c-86.4,0-145.6,52.7-145.6,149.6v83.5h-97.7v113.2h97.7V775H542.5z"/>
</svg>
